<mxfile host="app.diagrams.net" modified="2024-03-31T00:45:54.148Z" agent="Mozilla/5.0 (Windows NT 10.0; Win64; x64) AppleWebKit/537.36 (KHTML, like Gecko) Chrome/122.0.0.0 Safari/537.36 Edg/122.0.0.0" etag="nfctQI3gqFkmyuICSC1n" version="24.1.0" type="device">
  <diagram id="f106602c-feb2-e66a-4537-3a34d633f6aa" name="Page-1">
    <mxGraphModel dx="1339" dy="751" grid="1" gridSize="10" guides="1" tooltips="1" connect="1" arrows="1" fold="1" page="1" pageScale="1" pageWidth="1169" pageHeight="827" background="none" math="0" shadow="0">
      <root>
        <mxCell id="0" />
        <mxCell id="1" parent="0" />
        <mxCell id="ezCmR6IAs2jDMH5w3Rfo-42" value="" style="rounded=0;whiteSpace=wrap;html=1;" vertex="1" parent="1">
          <mxGeometry x="80" width="880" height="470" as="geometry" />
        </mxCell>
        <mxCell id="ezCmR6IAs2jDMH5w3Rfo-31" value="" style="rounded=0;whiteSpace=wrap;html=1;fillColor=none;" vertex="1" parent="1">
          <mxGeometry x="630" y="236" width="270" height="190" as="geometry" />
        </mxCell>
        <mxCell id="ezCmR6IAs2jDMH5w3Rfo-29" value="" style="rounded=0;whiteSpace=wrap;html=1;fillColor=none;" vertex="1" parent="1">
          <mxGeometry x="326" y="236" width="270" height="190" as="geometry" />
        </mxCell>
        <mxCell id="ezCmR6IAs2jDMH5w3Rfo-22" value="" style="edgeStyle=orthogonalEdgeStyle;rounded=0;orthogonalLoop=1;jettySize=auto;html=1;exitX=0.995;exitY=0.63;exitDx=0;exitDy=0;exitPerimeter=0;startArrow=classic;startFill=1;" edge="1" parent="1" source="ezCmR6IAs2jDMH5w3Rfo-1" target="ezCmR6IAs2jDMH5w3Rfo-2">
          <mxGeometry relative="1" as="geometry" />
        </mxCell>
        <mxCell id="ezCmR6IAs2jDMH5w3Rfo-41" value="SQLAlchemy ORM" style="edgeLabel;html=1;align=center;verticalAlign=middle;resizable=0;points=[];" vertex="1" connectable="0" parent="ezCmR6IAs2jDMH5w3Rfo-22">
          <mxGeometry x="-0.04" y="-2" relative="1" as="geometry">
            <mxPoint as="offset" />
          </mxGeometry>
        </mxCell>
        <mxCell id="ezCmR6IAs2jDMH5w3Rfo-1" value="&lt;br&gt;&lt;br&gt;&lt;br&gt;&lt;br&gt;&lt;br&gt;&lt;br&gt;&lt;br&gt;&lt;br&gt;&lt;br&gt;FastAPI&lt;br&gt;Application" style="aspect=fixed;sketch=0;html=1;dashed=0;whitespace=wrap;fillColor=#2875E2;strokeColor=#ffffff;points=[[0.005,0.63,0],[0.1,0.2,0],[0.9,0.2,0],[0.5,0,0],[0.995,0.63,0],[0.72,0.99,0],[0.5,1,0],[0.28,0.99,0]];shape=mxgraph.kubernetes.icon2;prIcon=api" vertex="1" parent="1">
          <mxGeometry x="414.13" y="252" width="93.75" height="90" as="geometry" />
        </mxCell>
        <mxCell id="ezCmR6IAs2jDMH5w3Rfo-2" value="PostgreSQL&lt;br&gt;DB" style="image;aspect=fixed;html=1;points=[];align=center;fontSize=12;image=img/lib/azure2/databases/Azure_Database_PostgreSQL_Server.svg;" vertex="1" parent="1">
          <mxGeometry x="731.25" y="264" width="67.5" height="90" as="geometry" />
        </mxCell>
        <mxCell id="ezCmR6IAs2jDMH5w3Rfo-3" value="" style="sketch=0;outlineConnect=0;fontColor=#232F3E;gradientColor=none;fillColor=#232F3D;strokeColor=none;dashed=0;verticalLabelPosition=bottom;verticalAlign=top;align=center;html=1;fontSize=12;fontStyle=0;aspect=fixed;pointerEvents=1;shape=mxgraph.aws4.client;" vertex="1" parent="1">
          <mxGeometry x="230" y="38" width="78" height="76" as="geometry" />
        </mxCell>
        <mxCell id="ezCmR6IAs2jDMH5w3Rfo-5" value="&lt;div&gt;&lt;br&gt;&lt;/div&gt;&lt;div&gt;&lt;br&gt;&lt;/div&gt;" style="sketch=0;outlineConnect=0;fontColor=#232F3E;gradientColor=none;fillColor=#232F3D;strokeColor=none;dashed=0;verticalLabelPosition=bottom;verticalAlign=top;align=center;html=1;fontSize=12;fontStyle=0;aspect=fixed;pointerEvents=1;shape=mxgraph.aws4.client;" vertex="1" parent="1">
          <mxGeometry x="120" y="38" width="78" height="76" as="geometry" />
        </mxCell>
        <mxCell id="ezCmR6IAs2jDMH5w3Rfo-6" value="TOR Nodes&lt;br&gt;(External)" style="sketch=0;outlineConnect=0;fontColor=#232F3E;gradientColor=none;fillColor=#232F3D;strokeColor=none;dashed=0;verticalLabelPosition=bottom;verticalAlign=top;align=center;html=1;fontSize=12;fontStyle=0;aspect=fixed;pointerEvents=1;shape=mxgraph.aws4.traditional_server;" vertex="1" parent="1">
          <mxGeometry x="551" y="36" width="45" height="78" as="geometry" />
        </mxCell>
        <mxCell id="ezCmR6IAs2jDMH5w3Rfo-12" style="edgeStyle=orthogonalEdgeStyle;rounded=0;orthogonalLoop=1;jettySize=auto;html=1;entryX=0.005;entryY=0.63;entryDx=0;entryDy=0;entryPerimeter=0;startArrow=classic;startFill=1;" edge="1" parent="1" source="ezCmR6IAs2jDMH5w3Rfo-3" target="ezCmR6IAs2jDMH5w3Rfo-1">
          <mxGeometry relative="1" as="geometry" />
        </mxCell>
        <mxCell id="ezCmR6IAs2jDMH5w3Rfo-34" value="HTTP Request" style="edgeLabel;html=1;align=center;verticalAlign=middle;resizable=0;points=[];" vertex="1" connectable="0" parent="ezCmR6IAs2jDMH5w3Rfo-12">
          <mxGeometry x="-0.1506" y="-2" relative="1" as="geometry">
            <mxPoint as="offset" />
          </mxGeometry>
        </mxCell>
        <mxCell id="ezCmR6IAs2jDMH5w3Rfo-20" style="edgeStyle=orthogonalEdgeStyle;rounded=0;orthogonalLoop=1;jettySize=auto;html=1;entryX=0.5;entryY=0;entryDx=0;entryDy=0;entryPerimeter=0;" edge="1" parent="1" source="ezCmR6IAs2jDMH5w3Rfo-6" target="ezCmR6IAs2jDMH5w3Rfo-1">
          <mxGeometry relative="1" as="geometry" />
        </mxCell>
        <mxCell id="ezCmR6IAs2jDMH5w3Rfo-21" style="edgeStyle=orthogonalEdgeStyle;rounded=0;orthogonalLoop=1;jettySize=auto;html=1;entryX=0.005;entryY=0.63;entryDx=0;entryDy=0;entryPerimeter=0;startArrow=classic;startFill=1;" edge="1" parent="1" source="ezCmR6IAs2jDMH5w3Rfo-5" target="ezCmR6IAs2jDMH5w3Rfo-1">
          <mxGeometry relative="1" as="geometry">
            <Array as="points">
              <mxPoint x="159" y="309" />
            </Array>
          </mxGeometry>
        </mxCell>
        <mxCell id="ezCmR6IAs2jDMH5w3Rfo-33" value="HTTP Request" style="edgeLabel;html=1;align=center;verticalAlign=middle;resizable=0;points=[];" vertex="1" connectable="0" parent="ezCmR6IAs2jDMH5w3Rfo-21">
          <mxGeometry x="0.1535" y="-1" relative="1" as="geometry">
            <mxPoint as="offset" />
          </mxGeometry>
        </mxCell>
        <mxCell id="ezCmR6IAs2jDMH5w3Rfo-30" value="Dockerfile.api" style="image;sketch=0;aspect=fixed;html=1;points=[];align=center;fontSize=12;image=img/lib/mscae/Docker.svg;" vertex="1" parent="1">
          <mxGeometry x="530" y="363" width="50" height="41" as="geometry" />
        </mxCell>
        <mxCell id="ezCmR6IAs2jDMH5w3Rfo-32" value="Dockerfile.db" style="image;sketch=0;aspect=fixed;html=1;points=[];align=center;fontSize=12;image=img/lib/mscae/Docker.svg;" vertex="1" parent="1">
          <mxGeometry x="836" y="363" width="50" height="41" as="geometry" />
        </mxCell>
        <mxCell id="ezCmR6IAs2jDMH5w3Rfo-40" value="Clients" style="text;html=1;align=center;verticalAlign=middle;resizable=0;points=[];autosize=1;strokeColor=none;fillColor=none;" vertex="1" parent="1">
          <mxGeometry x="180" y="8" width="60" height="30" as="geometry" />
        </mxCell>
      </root>
    </mxGraphModel>
  </diagram>
</mxfile>
